<?xml version="1.0" standalone="no"?>
<!DOCTYPE svg PUBLIC "-//W3C//DTD SVG 20010904//EN"
 "http://www.w3.org/TR/2001/REC-SVG-20010904/DTD/svg10.dtd">
<svg version="1.0" xmlns="http://www.w3.org/2000/svg"
 width="368.000000pt" height="216.000000pt" viewBox="0 0 368.000000 216.000000"
 preserveAspectRatio="xMidYMid meet">
<g transform="translate(0.000000,216.000000) scale(0.050000,-0.050000)"
fill="#000000" stroke="none">
<path d="M4864 3476 c-3 -72 -13 -96 -42 -105 -79 -26 -91 -66 -91 -328 l-1
-253 -60 0 c-57 0 -60 -4 -66 -95 -6 -93 -7 -95 -74 -95 -65 0 -68 -3 -74 -85
-5 -73 -13 -86 -56 -92 -68 -9 -103 -41 -99 -91 6 -80 -1 -90 -76 -96 l-75 -6
-6 -149 c-7 -168 -24 -201 -105 -201 -51 0 -57 -8 -63 -75 -6 -74 -7 -75 -100
-81 l-94 -6 -6 146 -6 146 -70 10 c-62 9 -70 17 -71 70 0 51 -10 61 -60 70
-52 9 -60 20 -65 85 -6 68 -12 75 -66 75 -33 0 -63 11 -68 25 -9 23 -25 103
-29 140 0 8 -36 15 -80 15 -76 0 -79 2 -85 75 -9 112 -142 117 -153 5 -7 -81
-33 -103 -100 -86 -57 14 -82 -19 -83 -109 0 -61 -5 -65 -69 -65 -65 0 -69 -4
-75 -75 -5 -65 -13 -76 -65 -85 -50 -9 -60 -19 -60 -70 -1 -53 -9 -61 -71 -70
l-70 -10 -6 -135 -6 -135 -79 0 -79 0 0 88 c0 81 -18 112 -225 390 l-225 301
-45 -55 c-60 -71 -127 -162 -284 -383 -161 -227 -149 -226 -266 -21 -71 126
-271 464 -295 500 -26 39 -36 26 -233 -300 -83 -137 -168 -274 -188 -303 -34
-48 -38 -113 -46 -733 -5 -374 -15 -690 -22 -702 -8 -14 -94 -22 -222 -22
l-209 0 0 -250 0 -250 3680 0 3680 0 0 250 0 250 -70 0 -70 0 0 630 0 630 -45
0 c-79 1 -93 25 -99 180 -6 149 -6 150 -66 160 -53 9 -61 19 -66 85 -5 64 -13
75 -54 75 -40 0 -49 11 -54 74 -5 61 -15 77 -56 86 -42 10 -51 25 -56 95 -6
77 -11 83 -70 89 -58 5 -65 13 -70 81 -6 71 -10 75 -74 75 -64 0 -68 -4 -74
-75 -5 -68 -12 -76 -71 -81 -62 -6 -65 -10 -65 -94 0 -80 -4 -88 -55 -94 -48
-5 -56 -16 -61 -81 -5 -64 -13 -75 -54 -75 -41 0 -49 -11 -54 -75 -5 -66 -13
-76 -66 -85 -59 -10 -60 -13 -66 -145 l-6 -135 -77 0 c-58 0 -80 9 -85 34 -4
24 -27 34 -76 35 l-70 1 -10 170 -10 170 -80 10 c-76 10 -80 14 -90 90 -9 70
-17 81 -70 90 -52 9 -60 19 -61 75 -2 79 -21 100 -99 108 -55 6 -61 14 -66 90
-5 73 -13 84 -63 94 l-57 11 -13 236 c-14 249 -33 317 -92 332 -28 7 -39 34
-44 107 l-8 97 -3 -94z"/>
</g>
</svg>
