<?xml version="1.0" standalone="no"?>
<!DOCTYPE svg PUBLIC "-//W3C//DTD SVG 20010904//EN"
 "http://www.w3.org/TR/2001/REC-SVG-20010904/DTD/svg10.dtd">
<svg version="1.0" xmlns="http://www.w3.org/2000/svg"
 width="480.000000pt" height="292.000000pt" viewBox="0 0 480.000000 292.000000"
 preserveAspectRatio="xMidYMid meet">
<g transform="translate(0.000000,292.000000) scale(0.050000,-0.050000)"
fill="#000000" stroke="none">
<path d="M4696 4541 c-41 -8 -50 -18 -37 -39 19 -31 6 -151 -22 -207 -14 -27
-35 -32 -104 -22 -73 10 -95 4 -144 -39 -77 -66 -55 -84 49 -42 121 48 121 23
-1 -91 -84 -78 -101 -104 -79 -118 20 -14 24 -41 16 -93 -15 -93 -5 -85 -146
-121 -228 -59 -403 -164 -594 -354 -208 -207 -224 -207 -207 10 11 140 7 166
-27 210 -22 28 -40 63 -40 78 0 39 -16 34 -66 -22 -55 -62 -199 -81 -210 -27
-5 24 15 40 74 58 108 32 119 71 32 112 -69 33 -110 186 -50 186 45 0 16 32
-46 51 -84 26 -183 2 -222 -55 -38 -53 -25 -76 42 -76 l51 0 -14 -142 c-8 -78
-21 -162 -30 -185 -17 -44 -41 -135 -78 -293 -23 -102 -18 -110 72 -129 50
-11 65 -7 65 15 0 37 45 56 80 34 20 -13 21 -29 5 -73 -12 -31 -27 -80 -33
-109 -8 -39 -30 -57 -92 -76 -87 -26 -97 -43 -49 -83 63 -52 89 -136 89 -288
l0 -151 -1428 0 c-1693 0 -1506 38 -1521 -310 -6 -132 -16 -329 -22 -438 -8
-129 -4 -205 10 -219 28 -28 29 -966 1 -983 -12 -7 -20 -117 -20 -261 l0 -249
4800 0 4800 0 0 249 0 248 -55 7 -55 6 -5 485 c-4 319 1 485 15 485 27 0 27
413 0 430 -11 7 -20 89 -20 182 0 97 -12 197 -27 234 -55 131 39 123 -1501
134 l-1402 10 -6 129 c-8 165 1 196 77 279 l63 69 -85 31 c-96 36 -181 224
-119 262 35 22 80 3 80 -34 0 -22 15 -26 65 -15 90 19 88 9 38 215 -114 468
-119 534 -45 534 67 0 72 43 12 95 -83 71 -292 50 -231 -23 44 -54 17 -139
-54 -172 -82 -38 -76 -83 15 -113 47 -15 72 -36 76 -65 10 -63 -148 -39 -208
32 l-42 49 -46 -76 c-40 -68 -44 -95 -33 -230 17 -232 -4 -234 -219 -21 -217
215 -403 318 -671 373 -57 12 -95 164 -48 196 13 9 -20 55 -87 120 -114 110
-106 149 16 86 94 -49 115 -37 51 30 -52 54 -69 60 -159 55 l-100 -6 -6 70
c-4 39 -15 78 -24 88 -11 11 -9 34 3 57 32 60 -37 83 -167 56z"/>
</g>
</svg>
