<?xml version="1.0" standalone="no"?>
<!DOCTYPE svg PUBLIC "-//W3C//DTD SVG 20010904//EN"
 "http://www.w3.org/TR/2001/REC-SVG-20010904/DTD/svg10.dtd">
<svg version="1.0" xmlns="http://www.w3.org/2000/svg"
 width="338.000000pt" height="512.000000pt" viewBox="0 0 338.000000 512.000000"
 preserveAspectRatio="xMidYMid meet">
<g transform="translate(0.000000,512.000000) scale(0.100000,-0.100000)"
fill="#000000" stroke="none">
<path d="M680 5067 c0 -58 -12 -77 -47 -77 -14 0 -23 -6 -23 -16 0 -9 6 -14
13 -11 6 2 23 0 36 -4 22 -9 23 -13 18 -72 -6 -59 -16 -131 -36 -262 -19 -122
-64 -422 -71 -475 -4 -30 -15 -109 -24 -175 -9 -66 -23 -160 -31 -210 -19
-121 -52 -344 -71 -485 -25 -193 -33 -220 -101 -358 l-65 -134 -3 -596 c-3
-609 -13 -957 -28 -980 -5 -7 -38 -31 -74 -54 -56 -35 -64 -44 -57 -62 5 -12
10 -194 11 -405 3 -303 1 -386 -9 -393 -7 -4 -37 -8 -65 -8 l-53 0 0 -140 0
-140 1690 0 1690 0 0 140 0 139 -57 3 -58 3 0 395 c0 217 3 402 8 410 5 11
-12 27 -67 62 l-74 46 -7 194 c-4 106 -8 461 -10 789 l-4 596 -71 136 c-40 78
-70 149 -70 166 0 16 -4 51 -10 78 -5 26 -21 131 -35 233 -14 102 -30 210 -35
240 -5 30 -14 88 -19 128 -6 39 -16 102 -21 140 -6 37 -15 101 -20 142 -5 41
-19 136 -30 210 -69 453 -93 630 -88 668 2 21 10 28 33 32 34 6 42 35 10 35
-36 0 -45 14 -45 71 0 41 -4 54 -15 54 -12 0 -15 -13 -15 -55 0 -44 -4 -56
-20 -65 -10 -6 -25 -9 -32 -8 -7 2 -13 -4 -13 -12 0 -8 9 -16 20 -16 11 -1 26
-2 34 -3 18 -1 12 -80 -24 -311 -14 -91 -30 -196 -35 -235 -5 -38 -11 -79 -14
-90 -2 -11 -7 -45 -10 -75 -8 -58 -31 -224 -47 -325 -5 -33 -16 -107 -24 -165
-8 -58 -19 -134 -25 -170 -6 -36 -15 -96 -20 -135 -32 -225 -41 -295 -47 -340
-5 -44 -102 -261 -135 -302 -6 -8 -9 -233 -8 -598 1 -499 -1 -585 -13 -585 -8
0 -20 7 -27 15 -7 8 -21 15 -31 15 -11 0 -36 15 -57 34 -36 34 -37 36 -38 109
-1 40 -7 83 -13 94 -14 27 -74 74 -128 102 -34 17 -42 27 -45 53 -3 27 -11 36
-53 57 -39 21 -51 33 -58 60 -6 26 -4 37 9 52 16 18 16 19 -7 28 -15 5 -29 5
-36 -1 -19 -15 -33 0 -27 31 l6 28 -61 -1 -61 -1 0 -31 c0 -32 -1 -32 -40 -27
-32 5 -40 2 -40 -10 0 -9 5 -19 10 -22 15 -9 12 -48 -6 -73 -8 -12 -32 -30
-51 -40 -26 -12 -40 -27 -48 -52 -8 -26 -24 -42 -56 -60 -104 -58 -129 -92
-129 -178 0 -37 -6 -75 -15 -92 -15 -28 -60 -60 -86 -60 -7 0 -23 -9 -35 -21
-12 -12 -27 -18 -33 -14 -15 9 -15 1045 -1 1097 10 35 7 45 -51 160 -33 68
-65 128 -69 133 -12 14 -26 96 -70 410 -11 77 -27 185 -35 240 -15 96 -28 183
-45 310 -4 33 -11 78 -14 100 -11 68 -25 164 -47 315 -11 80 -25 172 -30 205
-30 195 -40 282 -37 318 3 39 5 42 36 45 20 2 32 9 32 18 0 14 -12 18 -39 14
-22 -3 -31 20 -31 78 0 39 -4 52 -15 52 -11 0 -15 -13 -15 -53z"/>
</g>
</svg>
