<?xml version="1.0" standalone="no"?>
<!DOCTYPE svg PUBLIC "-//W3C//DTD SVG 20010904//EN"
 "http://www.w3.org/TR/2001/REC-SVG-20010904/DTD/svg10.dtd">
<svg version="1.0" xmlns="http://www.w3.org/2000/svg"
 width="324.000000pt" height="372.000000pt" viewBox="0 0 324.000000 372.000000"
 preserveAspectRatio="xMidYMid meet">
<g transform="translate(0.000000,372.000000) scale(0.050000,-0.050000)"
fill="#000000" stroke="none">
<path d="M2663 6516 c-14 -245 -24 -511 -23 -590 4 -217 -66 -349 -318 -602
-278 -280 -336 -441 -232 -648 l51 -100 -71 -78 c-117 -130 -79 -265 89 -315
91 -27 98 -46 43 -101 -32 -32 -34 -45 -14 -75 36 -56 44 -1007 8 -1030 -14
-9 -66 -17 -116 -17 l-90 0 5 -1191 5 -1191 -125 6 -125 6 -5 340 c-3 208 -14
357 -28 384 -16 31 -17 53 -3 70 12 15 26 217 33 466 7 242 18 463 25 492 10
46 0 59 -81 107 -177 103 -283 237 -461 581 -92 176 -178 320 -192 320 -25 0
-40 -24 -234 -398 -127 -244 -233 -374 -402 -492 l-115 -81 9 -124 c5 -69 21
-156 37 -194 21 -50 28 -150 26 -360 -1 -160 4 -308 12 -328 22 -56 -23 -72
-206 -73 l-165 0 0 -75 0 -75 169 6 c166 7 170 6 182 -43 29 -114 2 -133 -182
-133 l-169 0 0 -89 0 -89 174 -6 174 -6 6 -95 c8 -112 -13 -123 -222 -112
l-132 7 0 -285 0 -285 3240 0 3240 0 0 279 0 279 -125 6 -125 6 5 460 c3 253
7 786 10 1185 l5 725 -63 0 c-132 0 -127 -19 -129 457 -1 238 -8 456 -16 483
-10 31 -5 66 13 94 24 38 23 50 -6 95 -19 29 -31 54 -27 57 5 2 50 25 100 50
152 77 173 165 68 281 -82 91 -83 101 -30 188 112 183 28 415 -249 687 -268
263 -307 351 -308 708 -1 187 -16 465 -46 830 -8 104 -33 -252 -35 -511 -1
-171 -11 -300 -23 -312 -14 -14 -14 -37 0 -75 67 -176 -39 -396 -330 -682
-241 -237 -326 -501 -209 -650 54 -69 50 -102 -19 -163 -123 -108 -98 -229 63
-303 101 -46 116 -72 65 -115 -18 -15 -25 -39 -17 -57 20 -47 8 -1029 -13
-1051 -11 -11 -32 -6 -54 13 -52 46 -222 136 -256 136 -44 0 -35 32 21 68 72
47 63 111 -29 206 -85 89 -120 175 -84 211 15 15 15 33 -2 63 -12 23 -21 65
-18 92 5 63 -106 140 -225 155 -63 9 -97 29 -149 88 -92 106 -263 82 -263 -37
0 -28 -48 -46 -118 -46 -93 0 -244 -114 -230 -172 7 -27 2 -61 -11 -77 -18
-21 -18 -39 -1 -70 31 -59 8 -114 -82 -203 -94 -92 -101 -157 -25 -217 29 -23
49 -44 45 -47 -4 -3 -43 -17 -86 -32 -42 -15 -117 -54 -165 -88 -55 -39 -94
-55 -106 -43 -30 30 -30 1003 -1 1039 19 23 15 40 -19 84 l-44 55 78 26 c182
61 223 201 95 325 l-70 67 44 72 c120 195 42 436 -226 696 -121 118 -194 208
-238 296 -71 139 -64 73 -91 859 -19 557 -36 564 -66 26z"/>
</g>
</svg>
