<?xml version="1.0" standalone="no"?>
<!DOCTYPE svg PUBLIC "-//W3C//DTD SVG 20010904//EN"
 "http://www.w3.org/TR/2001/REC-SVG-20010904/DTD/svg10.dtd">
<svg version="1.0" xmlns="http://www.w3.org/2000/svg"
 width="518.000000pt" height="240.000000pt" viewBox="0 0 518.000000 240.000000"
 preserveAspectRatio="xMidYMid meet">
<g transform="translate(0.000000,240.000000) scale(0.050000,-0.050000)"
fill="#000000" stroke="none">
<path d="M3867 4223 c-11 -7 -154 -222 -318 -478 -165 -256 -332 -517 -373
-580 -177 -273 -180 -279 -153 -322 14 -22 41 -45 61 -50 30 -8 36 -31 36
-130 0 -94 8 -125 35 -141 32 -17 35 -74 41 -661 l6 -641 -1520 0 -1520 0 -41
-44 c-38 -40 -41 -69 -41 -352 0 -291 -2 -308 -40 -318 -37 -10 -40 -27 -40
-258 l0 -248 5180 0 5180 0 0 250 0 250 -50 0 -50 0 0 356 c0 241 -7 363 -23
379 -17 17 -17 38 -1 79 11 31 26 245 32 476 7 231 17 443 22 470 10 43 -5 60
-111 130 -138 90 -243 209 -329 370 -298 561 -282 535 -308 510 -11 -11 -50
-79 -88 -150 -223 -429 -264 -496 -371 -602 -62 -61 -150 -136 -195 -165 l-81
-54 8 -114 c4 -63 20 -151 35 -195 50 -144 50 -749 0 -761 -22 -6 -989 -8
-2150 -4 l-2110 5 -5 610 c-5 584 -4 612 35 664 29 39 40 85 40 165 0 61 9
111 20 111 11 0 38 18 60 40 54 54 56 49 -330 650 -184 286 -367 572 -407 635
-74 117 -102 141 -136 118z m-2991 -3238 l6 -85 -339 0 c-365 0 -363 0 -363
108 0 71 9 73 359 67 l331 -5 6 -85z m794 5 l0 -80 -345 -5 -345 -6 0 77 c0
108 -9 106 359 99 l331 -5 0 -80z m800 0 l0 -80 -345 -5 -345 -6 0 77 c0 108
-9 106 359 99 l331 -5 0 -80z m730 0 l0 -90 -310 0 -310 0 0 77 c0 106 -8 103
323 103 l297 0 0 -90z m1996 -6 l6 -85 -306 5 -306 6 -6 57 c-14 114 -11 115
311 109 l295 -6 6 -86z m800 1 l6 -86 -346 6 -346 5 -6 57 c-14 115 -15 114
351 108 l335 -5 6 -85z m800 0 l6 -86 -346 6 -346 5 -6 57 c-14 115 -15 114
351 108 l335 -5 6 -85z m800 0 l6 -85 -339 0 -338 0 -10 52 c-25 129 -24 130
342 123 l333 -5 6 -85z m800 0 l6 -85 -341 0 -341 0 0 90 0 91 335 -6 335 -5
6 -85z m474 54 c36 -113 3 -139 -178 -139 -183 0 -213 23 -171 132 26 69 328
74 349 7z m-8000 -429 l0 -100 -317 -6 c-355 -6 -373 0 -373 115 0 105 -7 103
359 96 l331 -5 0 -100z m800 0 l0 -100 -340 0 -340 0 -6 77 c-12 138 -22 135
351 128 l335 -5 0 -100z m800 0 l0 -100 -340 0 -340 0 -6 77 c-12 138 -22 135
351 128 l335 -5 0 -100z m730 -1 l0 -110 -305 5 -305 6 -6 77 c-11 135 -17
133 315 133 l301 0 0 -111z m1990 1 l0 -100 -288 -6 c-319 -6 -321 -5 -322
118 0 101 -4 100 319 94 l291 -6 0 -100z m800 0 l0 -100 -340 0 -340 0 -6 77
c-12 138 -22 135 351 128 l335 -5 0 -100z m800 0 l0 -100 -340 0 -340 0 -6 77
c-12 138 -22 135 351 128 l335 -5 0 -100z m806 5 l-6 -105 -330 0 -330 0 -6
105 -6 105 342 0 342 0 -6 -105z m794 -5 l0 -100 -335 -5 -335 -6 0 111 0 111
335 -6 335 -5 0 -100z m486 24 c10 -114 -18 -134 -184 -134 -158 0 -192 18
-192 102 0 114 10 120 197 114 l173 -6 6 -76z"/>
</g>
</svg>
