<?xml version="1.0" standalone="no"?>
<!DOCTYPE svg PUBLIC "-//W3C//DTD SVG 20010904//EN"
 "http://www.w3.org/TR/2001/REC-SVG-20010904/DTD/svg10.dtd">
<svg version="1.0" xmlns="http://www.w3.org/2000/svg"
 width="106.000000pt" height="338.000000pt" viewBox="0 0 106.000000 338.000000"
 preserveAspectRatio="xMidYMid meet">
<g transform="translate(0.000000,338.000000) scale(0.050000,-0.050000)"
fill="#000000" stroke="none">
<path d="M165 6341 c-39 -64 -30 -116 34 -183 78 -82 121 -236 121 -441 1
-191 66 -466 156 -662 22 -47 55 -121 73 -166 21 -52 71 -110 143 -165 131
-101 159 -161 124 -258 -22 -60 -32 -67 -76 -56 -261 67 -383 -44 -309 -280
23 -73 27 -116 14 -143 -55 -105 -50 -221 14 -286 34 -34 61 -76 61 -92 0 -17
21 -73 47 -125 74 -147 79 -194 34 -297 -45 -101 -56 -306 -21 -398 11 -29 26
-146 33 -258 l13 -206 -72 -117 c-52 -87 -80 -165 -104 -298 -59 -319 -77
-394 -103 -420 -14 -14 -28 -82 -31 -153 l-6 -127 -134 -6 -134 -6 -11 -334
c-6 -184 -16 -453 -22 -599 l-11 -265 1061 0 1061 0 0 249 0 249 -75 6 -75 6
-5 344 -6 344 -134 6 -135 6 -10 143 c-11 164 -5 153 -107 195 l-78 32 14 206
c13 180 9 218 -27 315 -25 65 -42 156 -42 225 0 242 -74 498 -178 620 -112
131 -144 190 -125 228 10 20 31 81 47 136 24 85 42 110 126 165 216 142 240
392 27 283 -89 -46 -353 -118 -431 -118 -133 0 -86 32 67 47 93 8 180 34 283
83 81 38 160 70 174 70 93 0 38 168 -60 181 l-80 11 74 16 c85 18 87 57 14
236 -39 97 -51 226 -21 244 35 22 45 343 13 432 -69 197 -37 308 126 427 58
43 114 106 142 163 25 51 81 127 124 170 112 111 105 302 -12 332 -64 16 -79
3 -53 -47 16 -30 8 -59 -38 -136 -81 -138 -111 -169 -259 -267 -140 -93 -211
-163 -243 -242 -31 -76 -77 -256 -77 -306 -1 -133 -55 -115 -283 91 -177 161
-198 199 -256 455 -23 105 -51 228 -62 275 -10 47 -19 113 -19 145 0 38 -21
83 -55 121 -30 33 -69 99 -86 145 -35 98 -111 125 -154 55z m935 -2391 c-14
-16 -48 -30 -76 -30 -80 0 -15 45 83 58 10 1 7 -11 -7 -28z m5 -1433 c30 -36
55 -73 55 -83 0 -10 18 -41 40 -69 30 -38 40 -81 40 -176 0 -94 21 -188 81
-370 117 -350 132 -328 -241 -335 -605 -11 -644 59 -360 646 64 132 127 281
140 330 14 50 28 102 33 118 15 50 150 11 212 -61z"/>
</g>
</svg>
