<?xml version="1.0" standalone="no"?>
<!DOCTYPE svg PUBLIC "-//W3C//DTD SVG 20010904//EN"
 "http://www.w3.org/TR/2001/REC-SVG-20010904/DTD/svg10.dtd">
<svg version="1.0" xmlns="http://www.w3.org/2000/svg"
 width="316.000000pt" height="210.000000pt" viewBox="0 0 316.000000 210.000000"
 preserveAspectRatio="xMidYMid meet">
<g transform="translate(0.000000,210.000000) scale(0.050000,-0.050000)"
fill="#000000" stroke="none">
<path d="M3020 3872 c0 -71 7 -90 35 -92 19 -1 96 -7 171 -13 l137 -11 -7 77
-6 77 -140 11 c-78 6 -152 18 -165 26 -18 11 -25 -8 -25 -75z"/>
<path d="M2973 3587 c-7 -8 -13 -43 -13 -79 0 -46 -18 -83 -62 -127 -57 -57
-60 -68 -45 -146 54 -289 -47 -447 -394 -612 -194 -92 -259 -173 -259 -321 l0
-82 -96 0 -97 0 2 -95 1 -95 -88 -6 c-48 -4 -97 3 -109 15 -25 25 -186 28
-202 3 -28 -46 -726 -18 -779 31 -61 57 -76 58 -122 7 -45 -49 -91 -52 -87 -5
10 115 -7 167 -83 255 -57 66 -80 111 -80 156 0 74 -70 201 -105 189 -39 -13
-92 -121 -94 -193 -1 -50 -22 -90 -81 -154 -59 -64 -80 -105 -81 -153 0 -36 0
-262 1 -502 1 -304 -6 -446 -22 -465 -17 -21 -17 -35 0 -56 49 -59 20 -681
-33 -688 -44 -7 -45 -14 -45 -235 l0 -229 3160 0 3160 0 0 229 0 229 -155 6
-155 6 -2 372 c-1 205 -9 383 -17 396 -7 12 -12 86 -9 164 4 130 0 145 -49
190 -29 27 -53 62 -53 78 0 42 -83 175 -134 216 -26 20 -46 54 -46 75 0 34
-15 39 -109 39 -93 0 -120 9 -178 60 -83 73 -93 74 -155 8 -48 -52 -240 -61
-433 -20 -25 5 -45 1 -45 -9 0 -25 -274 -24 -290 1 -16 26 -204 26 -220 0 -7
-11 -53 -20 -104 -20 l-91 0 10 100 9 100 -97 0 c-105 0 -102 -5 -125 168 -12
90 -86 177 -179 213 -362 140 -527 359 -454 602 25 85 7 143 -63 198 -22 18
-43 67 -50 115 -11 82 -100 123 -153 71z"/>
</g>
</svg>
